<svg width="35" height="35" viewBox="0 0 35 35" fill="none" xmlns="http://www.w3.org/2000/svg">
<path fill-rule="evenodd" clip-rule="evenodd" d="M21.8239 20.7885H22.976L30.2531 28.0802L28.0802 30.2531L20.7885 22.976V21.8239L20.3947 21.4156C18.7322 22.8447 16.5739 23.7052 14.226 23.7052C8.99058 23.7052 4.74683 19.4614 4.74683 14.226C4.74683 8.99058 8.99058 4.74683 14.226 4.74683C19.4614 4.74683 23.7052 8.99058 23.7052 14.226C23.7052 16.5739 22.8447 18.7322 21.4156 20.3947L21.8239 20.7885ZM7.66349 14.226C7.66349 17.8572 10.5947 20.7885 14.226 20.7885C17.8572 20.7885 20.7885 17.8572 20.7885 14.226C20.7885 10.5947 17.8572 7.66349 14.226 7.66349C10.5947 7.66349 7.66349 10.5947 7.66349 14.226Z" fill="black"/>
</svg>
