<svg width="40" height="40" viewBox="0 0 40 40" fill="none" xmlns="http://www.w3.org/2000/svg">
<path fill-rule="evenodd" clip-rule="evenodd" d="M30.4938 19.95C29.9271 20.9833 28.8271 21.6666 27.5771 21.6666H15.1605L13.3271 25H33.3271V28.3333H13.3271C10.7938 28.3333 9.19381 25.6166 10.4105 23.3833L12.6605 19.3166L6.66048 6.66665H3.32715V3.33331H8.77715L10.3438 6.66665H35.0105C36.2771 6.66665 37.0771 8.03331 36.4605 9.13331L30.4938 19.95ZM32.1771 9.99998H11.9271L15.8771 18.3333H27.5771L32.1771 9.99998ZM13.3271 30C11.4938 30 10.0105 31.5 10.0105 33.3333C10.0105 35.1666 11.4938 36.6666 13.3271 36.6666C15.1605 36.6666 16.6605 35.1666 16.6605 33.3333C16.6605 31.5 15.1605 30 13.3271 30ZM26.6771 33.3333C26.6771 31.5 28.1605 30 29.9938 30C31.8272 30 33.3272 31.5 33.3272 33.3333C33.3272 35.1666 31.8272 36.6666 29.9938 36.6666C28.1605 36.6666 26.6771 35.1666 26.6771 33.3333Z" fill="black"/>
</svg>
