<svg aria-hidden="true" style="position: absolute; width: 0; height: 0; overflow: hidden;" version="1.1" xmlns="http://www.w3.org/2000/svg" xmlns:xlink="http://www.w3.org/1999/xlink">
<defs>
<symbol id="icon-arrow_right" viewBox="0 0 24 24">
<path d="M9.984 17.016v-10.031l5.016 5.016z"></path>
</symbol>
<symbol id="icon-arrow_left" viewBox="0 0 24 24">
<path d="M14.016 6.984v10.031l-5.016-5.016z"></path>
</symbol>
<symbol id="icon-call_b_24px" viewBox="0 0 32 32">
<path d="M5.184 3.888c-0.713 0-1.296 0.583-1.296 1.296 0 12.169 9.862 22.031 22.031 22.031 0.713 0 1.296-0.583 1.296-1.296v-4.523c0-0.713-0.583-1.296-1.296-1.296-1.607 0-3.175-0.259-4.626-0.739-0.13-0.052-0.272-0.065-0.402-0.065-0.337 0-0.661 0.13-0.92 0.376l-2.851 2.851c-3.667-1.879-6.674-4.873-8.54-8.54l2.851-2.851c0.363-0.363 0.467-0.868 0.324-1.322-0.479-1.451-0.739-3.007-0.739-4.626 0-0.713-0.583-1.296-1.296-1.296h-4.536zM8.475 6.48c0.078 1.153 0.272 2.281 0.583 3.356l-1.555 1.555c-0.531-1.555-0.868-3.201-0.985-4.912h1.957zM21.253 22.056c1.102 0.311 2.229 0.505 3.369 0.583v1.931c-1.711-0.117-3.356-0.454-4.924-0.972l1.555-1.542z"></path>
</symbol>
<symbol id="icon-card_giftcard_24px" viewBox="0 0 32 32">
<path fill="#fff" style="fill: var(--color1, #fff)" d="M23.76 8.667h2.907c1.48 0 2.667 1.187 2.667 2.667v14.667c0 1.48-1.187 2.667-2.667 2.667h-21.333c-1.48 0-2.667-1.187-2.667-2.667l0.013-14.667c0-1.48 1.173-2.667 2.653-2.667h2.907c-0.147-0.413-0.24-0.867-0.24-1.333 0-2.213 1.787-4 4-4 1.4 0 2.613 0.72 3.333 1.787l0.667 0.907 0.667-0.893c0.72-1.080 1.933-1.8 3.333-1.8 2.213 0 4 1.787 4 4 0 0.467-0.093 0.92-0.24 1.333zM21.333 7.333c0-0.733-0.6-1.333-1.333-1.333s-1.333 0.6-1.333 1.333 0.6 1.333 1.333 1.333c0.733 0 1.333-0.6 1.333-1.333zM12 6c0.733 0 1.333 0.6 1.333 1.333s-0.6 1.333-1.333 1.333c-0.733 0-1.333-0.6-1.333-1.333s0.6-1.333 1.333-1.333zM5.333 11.333v14.4h21.333v-14.4h-6.773l2.773 3.773-2.16 1.56-4.507-6.133-4.507 6.133-2.16-1.56 2.773-3.773h-6.773z"></path>
</symbol>
<symbol id="icon-menu_mobile_24px" viewBox="0 0 32 32">
<path fill="#fff" style="fill: var(--color1, #fff)" d="M4 10.667v-2.667h24v2.667h-24zM4 17.333h24v-2.667h-24v2.667zM4 24h24v-2.667h-24v2.667z"></path>
</symbol>
<symbol id="icon-menu_sticks_desctop" viewBox="0 0 32 32">
<path fill="#fff" style="fill: var(--color1, #fff)" d="M4 10.667v-2.667h24v2.667h-24zM4 17.333h24v-2.667h-24v2.667zM4 24h24v-2.667h-24v2.667z"></path>
</symbol>
<symbol id="icon-search_24px" viewBox="0 0 32 32">
<path d="M19.953 19.007h1.053l6.653 6.667-1.987 1.987-6.667-6.653v-1.053l-0.36-0.373c-1.52 1.307-3.493 2.093-5.64 2.093-4.787 0-8.667-3.88-8.667-8.667s3.88-8.667 8.667-8.667c4.787 0 8.667 3.88 8.667 8.667 0 2.147-0.787 4.12-2.093 5.64l0.373 0.36zM7.007 13.007c0 3.32 2.68 6 6 6s6-2.68 6-6c0-3.32-2.68-6-6-6s-6 2.68-6 6z"></path>
</symbol>
<symbol id="icon-storeCatalog" viewBox="0 0 32 32">
<path fill="#fff" style="fill: var(--color1, #fff)" d="M4.8 4.8h10.435v10.435h-10.435v-10.435zM12.626 12.626v-5.217h-5.217v5.217h5.217zM26.191 7.409v5.217h-5.217v-5.217h5.217zM18.365 4.8h10.435v10.435h-10.435v-10.435zM26.191 20.974v5.217h-5.217v-5.217h5.217zM18.365 18.365h10.435v10.435h-10.435v-10.435zM12.626 20.974v5.217h-5.217v-5.217h5.217zM4.8 18.365h10.435v10.435h-10.435v-10.435z"></path>
</symbol>
</defs>
</svg>
